# xmcd
#
# Track frame offsets:
#	150
#	4068
#	19216
#	30025
#	44880
#	55244
#	70504
#	83421
#	93937
#	112802
#	125535
#	142934
#
# Disc length: 2100 seconds
#
# Revision: 1
# Processed by: cddbd v1.5.2PL0 Copyright (c) Steve Scherf et al.
# Submitted via: audiograbber 1.83.01
#
DISCID=8808320c
DTITLE=Back on the Road - MY KIND OF BLUES
DYEAR=2009
DGENRE=Blues
TTITLE0=Intro
TTITLE1=Its all over now
TTITLE2=I Shoulda Been Gone
TTITLE3=Johnn Less Boogie
TTITLE4=Route 63
TTITLE5=Nightfever
TTITLE6=Someday After A While
TTITLE7=Messin With The Kilt
TTITLE8=Oh Pretty Woman
TTITLE9=My Kind Of Blues
TTITLE10=Kansas City
TTITLE11=Something You Got
EXTD=
EXTT0=
EXTT1=
EXTT2=
EXTT3=
EXTT4=
EXTT5=
EXTT6=
EXTT7=
EXTT8=
EXTT9=
EXTT10=
EXTT11=
PLAYORDER=
